<svg xmlns="http://www.w3.org/2000/svg" xmlns:xlink="http://www.w3.org/1999/xlink" version="1.1" data-diagram-type="CLASS" style="width:748px;height:741px;background:#FFFFFF;" width="748px" height="741px" viewBox="0 0 748 741" zoomAndPan="magnify" preserveAspectRatio="none" contentStyleType="text/css"><?plantuml 1.2026.8beta1?><defs/><g font-family="sans-serif" lengthAdjust="spacing"><g class="title" data-source-line="2"><text x="267.869" y="22.995" fill="#000" font-size="14" textLength="205.304" font-weight="700">FIG-CL-TAV-08 Parametric</text><text x="36.445" y="39.292" fill="#000" font-size="14" textLength="668.151" font-weight="700">SysML 1.6 notation-based views; executable/metamodel conformance is not claimed</text><text x="218.619" y="55.589" fill="#000" font-size="14" textLength="303.803" font-weight="700">constraints shown, not claimed solved</text></g><!--class I_allow--><g class="entity" data-qualified-name="I_allow" id="ent0001" data-source-line="4"><rect x="7" y="242.041" width="190.562" height="72.563" fill="#F1F1F1" style="stroke:#181818;stroke-width:0.5;" rx="2.5" ry="2.5"/><ellipse cx="62.472" cy="262.173" rx="11" ry="11" fill="#ADD1B2" style="stroke:#181818;stroke-width:1;"/><path d="M65.441,267.814 Q64.863,268.111 64.222,268.252 Q63.582,268.408 62.878,268.408 Q60.378,268.408 59.05,266.767 Q57.738,265.111 57.738,261.986 Q57.738,258.861 59.05,257.205 Q60.378,255.548 62.878,255.548 Q63.582,255.548 64.222,255.705 Q64.878,255.861 65.441,256.158 L65.441,258.877 Q64.816,258.298 64.222,258.033 Q63.628,257.752 63.003,257.752 Q61.66,257.752 60.972,258.83 Q60.285,259.892 60.285,261.986 Q60.285,264.08 60.972,265.158 Q61.66,266.22 63.003,266.22 Q63.628,266.22 64.222,265.955 Q64.816,265.673 65.441,265.095 L65.441,267.814 Z " fill="#000"/><text x="80.972" y="258.179" fill="#000" font-size="12" textLength="75.117" font-style="italic">«constraint»</text><text x="94.779" y="274.004" fill="#000" font-size="14" textLength="47.503">I_allow</text><line x1="8" y1="282.306" x2="196.562" y2="282.306" style="stroke:#181818;stroke-width:0.5;"/><text x="13" y="299.301" fill="#000" font-size="14" textLength="178.562">I : allowed timing interval</text><line x1="8" y1="306.603" x2="196.562" y2="306.603" style="stroke:#181818;stroke-width:0.5;"/></g><!--class eps--><g class="entity" data-qualified-name="eps" id="ent0002" data-source-line="7"><rect x="232.76" y="242.041" width="261.04" height="72.563" fill="#F1F1F1" style="stroke:#181818;stroke-width:0.5;" rx="2.5" ry="2.5"/><ellipse cx="323.471" cy="262.173" rx="11" ry="11" fill="#ADD1B2" style="stroke:#181818;stroke-width:1;"/><path d="M326.44,267.814 Q325.862,268.111 325.221,268.252 Q324.581,268.408 323.878,268.408 Q321.378,268.408 320.05,266.767 Q318.737,265.111 318.737,261.986 Q318.737,258.861 320.05,257.205 Q321.378,255.548 323.878,255.548 Q324.581,255.548 325.221,255.705 Q325.878,255.861 326.44,256.158 L326.44,258.877 Q325.815,258.298 325.221,258.033 Q324.628,257.752 324.003,257.752 Q322.659,257.752 321.971,258.83 Q321.284,259.892 321.284,261.986 Q321.284,264.08 321.971,265.158 Q322.659,266.22 324.003,266.22 Q324.628,266.22 325.221,265.955 Q325.815,265.673 326.44,265.095 L326.44,267.814 Z " fill="#000"/><text x="341.971" y="258.179" fill="#000" font-size="12" textLength="75.117" font-style="italic">«constraint»</text><text x="367.133" y="274.004" fill="#000" font-size="14" textLength="24.794">eps</text><line x1="233.76" y1="282.306" x2="492.8" y2="282.306" style="stroke:#181818;stroke-width:0.5;"/><text x="238.76" y="299.301" fill="#000" font-size="14" textLength="249.04">epsilon : measurement error bound</text><line x1="233.76" y1="306.603" x2="492.8" y2="306.603" style="stroke:#181818;stroke-width:0.5;"/></g><!--class J_meas--><g class="entity" data-qualified-name="J_meas" id="ent0003" data-source-line="10"><rect x="211.26" y="382.761" width="282.033" height="72.563" fill="#F1F1F1" style="stroke:#181818;stroke-width:0.5;" rx="2.5" ry="2.5"/><ellipse cx="312.468" cy="402.893" rx="11" ry="11" fill="#ADD1B2" style="stroke:#181818;stroke-width:1;"/><path d="M315.437,408.534 Q314.859,408.831 314.218,408.972 Q313.577,409.128 312.874,409.128 Q310.374,409.128 309.046,407.487 Q307.734,405.831 307.734,402.706 Q307.734,399.581 309.046,397.925 Q310.374,396.268 312.874,396.268 Q313.577,396.268 314.218,396.425 Q314.874,396.581 315.437,396.878 L315.437,399.597 Q314.812,399.018 314.218,398.753 Q313.624,398.472 312.999,398.472 Q311.656,398.472 310.968,399.55 Q310.281,400.612 310.281,402.706 Q310.281,404.8 310.968,405.878 Q311.656,406.94 312.999,406.94 Q313.624,406.94 314.218,406.675 Q314.812,406.393 315.437,405.815 L315.437,408.534 Z " fill="#000"/><text x="330.968" y="398.899" fill="#000" font-size="12" textLength="75.117" font-style="italic">«constraint»</text><text x="343.9" y="414.724" fill="#000" font-size="14" textLength="49.253">J_meas</text><line x1="212.26" y1="423.026" x2="492.293" y2="423.026" style="stroke:#181818;stroke-width:0.5;"/><text x="217.26" y="440.021" fill="#000" font-size="14" textLength="270.033">J : feasible interval from measurement</text><line x1="212.26" y1="447.323" x2="492.293" y2="447.323" style="stroke:#181818;stroke-width:0.5;"/></g><!--class cmin_b--><g class="entity" data-qualified-name="cmin_b" id="ent0004" data-source-line="13"><rect x="545.54" y="76.891" width="167.477" height="105.156" fill="#F1F1F1" style="stroke:#181818;stroke-width:0.5;" rx="2.5" ry="2.5"/><ellipse cx="589.502" cy="97.023" rx="11" ry="11" fill="#ADD1B2" style="stroke:#181818;stroke-width:1;"/><path d="M592.47,102.664 Q591.892,102.961 591.252,103.102 Q590.611,103.258 589.908,103.258 Q587.408,103.258 586.08,101.617 Q584.767,99.961 584.767,96.836 Q584.767,93.711 586.08,92.055 Q587.408,90.398 589.908,90.398 Q590.611,90.398 591.252,90.555 Q591.908,90.711 592.47,91.008 L592.47,93.727 Q591.845,93.148 591.252,92.883 Q590.658,92.602 590.033,92.602 Q588.689,92.602 588.002,93.68 Q587.314,94.742 587.314,96.836 Q587.314,98.93 588.002,100.008 Q588.689,101.07 590.033,101.07 Q590.658,101.07 591.252,100.805 Q591.845,100.523 592.47,99.945 L592.47,102.664 Z " fill="#000"/><text x="607.938" y="93.029" fill="#000" font-size="12" textLength="75.117" font-style="italic">«constraint»</text><text x="620.504" y="108.854" fill="#000" font-size="14" textLength="49.984">cmin_b</text><line x1="546.54" y1="117.156" x2="712.017" y2="117.156" style="stroke:#181818;stroke-width:0.5;"/><text x="551.54" y="134.151" fill="#000" font-size="14" textLength="63.636">cmin > 0</text><line x1="546.54" y1="141.453" x2="712.017" y2="141.453" style="stroke:#181818;stroke-width:0.5;"/><text x="551.54" y="158.448" fill="#000" font-size="14" textLength="111.918">cost(t) >= cmin</text><text x="551.54" y="174.745" fill="#000" font-size="14" textLength="155.477">cost(ERROR) >= cmin</text></g><!--class budget--><g class="entity" data-qualified-name="budget" id="ent0005" data-source-line="18"><rect x="538.88" y="242.041" width="180.793" height="72.563" fill="#F1F1F1" style="stroke:#181818;stroke-width:0.5;" rx="2.5" ry="2.5"/><ellipse cx="589.468" cy="262.173" rx="11" ry="11" fill="#ADD1B2" style="stroke:#181818;stroke-width:1;"/><path d="M592.437,267.814 Q591.859,268.111 591.218,268.252 Q590.577,268.408 589.874,268.408 Q587.374,268.408 586.046,266.767 Q584.734,265.111 584.734,261.986 Q584.734,258.861 586.046,257.205 Q587.374,255.548 589.874,255.548 Q590.577,255.548 591.218,255.705 Q591.874,255.861 592.437,256.158 L592.437,258.877 Q591.812,258.298 591.218,258.033 Q590.624,257.752 589.999,257.752 Q588.655,257.752 587.968,258.83 Q587.28,259.892 587.28,261.986 Q587.28,264.08 587.968,265.158 Q588.655,266.22 589.999,266.22 Q590.624,266.22 591.218,265.955 Q591.812,265.673 592.437,265.095 L592.437,267.814 Z " fill="#000"/><text x="607.968" y="258.179" fill="#000" font-size="12" textLength="75.117" font-style="italic">«constraint»</text><text x="620.709" y="274.004" fill="#000" font-size="14" textLength="49.636">budget</text><line x1="539.88" y1="282.306" x2="718.673" y2="282.306" style="stroke:#181818;stroke-width:0.5;"/><text x="544.88" y="299.301" fill="#000" font-size="14" textLength="168.793">B finite XOR Kmax finite</text><line x1="539.88" y1="306.603" x2="718.673" y2="306.603" style="stroke:#181818;stroke-width:0.5;"/></g><!--class score--><g class="entity" data-qualified-name="score" id="ent0006" data-source-line="21"><rect x="527.85" y="374.611" width="202.859" height="88.859" fill="#F1F1F1" style="stroke:#181818;stroke-width:0.5;" rx="2.5" ry="2.5"/><ellipse cx="589.471" cy="394.743" rx="11" ry="11" fill="#ADD1B2" style="stroke:#181818;stroke-width:1;"/><path d="M592.44,400.384 Q591.862,400.681 591.221,400.822 Q590.58,400.978 589.877,400.978 Q587.377,400.978 586.049,399.337 Q584.737,397.681 584.737,394.556 Q584.737,391.431 586.049,389.775 Q587.377,388.118 589.877,388.118 Q590.58,388.118 591.221,388.275 Q591.877,388.431 592.44,388.728 L592.44,391.447 Q591.815,390.868 591.221,390.603 Q590.627,390.322 590.002,390.322 Q588.659,390.322 587.971,391.4 Q587.284,392.462 587.284,394.556 Q587.284,396.65 587.971,397.728 Q588.659,398.79 590.002,398.79 Q590.627,398.79 591.221,398.525 Q591.815,398.243 592.44,397.665 L592.44,400.384 Z " fill="#000"/><text x="607.971" y="390.749" fill="#000" font-size="12" textLength="75.117" font-style="italic">«constraint»</text><text x="626.567" y="406.574" fill="#000" font-size="14" textLength="37.926">score</text><line x1="528.85" y1="414.876" x2="729.709" y2="414.876" style="stroke:#181818;stroke-width:0.5;"/><line x1="528.85" y1="422.876" x2="729.709" y2="422.876" style="stroke:#181818;stroke-width:0.5;"/><text x="533.85" y="439.871" fill="#000" font-size="14" textLength="190.859">s(t) = worst remaining |Hk|</text><text x="533.85" y="456.168" fill="#000" font-size="14" textLength="100.728">over Obs(t,qk)</text></g><!--class update--><g class="entity" data-qualified-name="update" id="ent0007" data-source-line="25"><rect x="334.18" y="523.471" width="312.2" height="72.563" fill="#F1F1F1" style="stroke:#181818;stroke-width:0.5;" rx="2.5" ry="2.5"/><ellipse cx="450.472" cy="543.603" rx="11" ry="11" fill="#ADD1B2" style="stroke:#181818;stroke-width:1;"/><path d="M453.44,549.244 Q452.862,549.541 452.222,549.682 Q451.581,549.838 450.878,549.838 Q448.378,549.838 447.05,548.197 Q445.737,546.541 445.737,543.416 Q445.737,540.291 447.05,538.635 Q448.378,536.978 450.878,536.978 Q451.581,536.978 452.222,537.135 Q452.878,537.291 453.44,537.588 L453.44,540.307 Q452.815,539.728 452.222,539.463 Q451.628,539.182 451.003,539.182 Q449.659,539.182 448.972,540.26 Q448.284,541.322 448.284,543.416 Q448.284,545.51 448.972,546.588 Q449.659,547.65 451.003,547.65 Q451.628,547.65 452.222,547.385 Q452.815,547.103 453.44,546.525 L453.44,549.244 Z " fill="#000"/><text x="468.972" y="539.609" fill="#000" font-size="12" textLength="75.117" font-style="italic">«constraint»</text><text x="481.866" y="555.434" fill="#000" font-size="14" textLength="49.328">update</text><line x1="335.18" y1="563.736" x2="645.38" y2="563.736" style="stroke:#181818;stroke-width:0.5;"/><line x1="335.18" y1="571.736" x2="645.38" y2="571.736" style="stroke:#181818;stroke-width:0.5;"/><text x="340.18" y="588.731" fill="#000" font-size="14" textLength="300.2">Hk+1 = {h in Hk | O(h,t,qk) intersects Izk}</text></g><g class="entity" data-qualified-name="GMN14" id="ent0015" data-source-line="37"><path d="M247.52,656.031 L247.52,726.562 A0,0 0 0 0 247.52,726.562 L733.041,726.562 A0,0 0 0 0 733.041,726.562 L733.041,666.031 L723.041,656.031 L494.28,656.031 L490.28,596.491 L486.28,656.031 L247.52,656.031 A0,0 0 0 0 247.52,656.031" style="stroke:#181818;stroke-width:0.5;" fill="#FEFFDD"/><path d="M723.041,656.031 L723.041,666.031 L733.041,666.031 L723.041,656.031" style="stroke:#181818;stroke-width:0.5;" fill="#FEFFDD"/><text x="253.52" y="673.098" fill="#000" font-size="13" textLength="367.313">Positive-but-vanishing costs are not a termination proof.</text><text x="253.52" y="688.23" fill="#000" font-size="13" textLength="404.765">ERROR is under the same chosen constraint as ordinary tests.</text><text x="253.52" y="703.363" fill="#000" font-size="13" textLength="464.521">Parametric view displays constraints; it does not claim they are solved.</text><text x="253.52" y="718.496" fill="#000" font-size="13" textLength="268.011">Selected mode is BUDGET XOR ROUNDS.</text></g><!--link I_allow to J_meas--><g class="link" data-entity-1="ent0001" data-entity-2="ent0003" id="lnk8" data-source-line="29" data-link-type="association"><path d="M166.66,315.051 C203.99,335.761 250.83,361.751 288.12,382.441" style="stroke:#181818;stroke-width:1;stroke-dasharray:7,7;" fill="none" id="I_allow-J_meas" codeLine="29"/></g><!--link eps to J_meas--><g class="link" data-entity-1="ent0002" data-entity-2="ent0003" id="lnk9" data-source-line="30" data-link-type="association"><path d="M360.45,315.051 C358.81,335.761 356.74,361.751 355.1,382.441" style="stroke:#181818;stroke-width:1;stroke-dasharray:7,7;" fill="none" id="eps-J_meas" codeLine="30"/></g><!--link J_meas to update--><g class="link" data-entity-1="ent0003" data-entity-2="ent0007" id="lnk10" data-source-line="31" data-link-type="association"><path d="M387.82,455.761 C408.42,476.471 434.28,502.461 454.86,523.151" style="stroke:#181818;stroke-width:1;stroke-dasharray:7,7;" fill="none" id="J_meas-update" codeLine="31"/></g><!--link cmin_b to budget--><g class="link" data-entity-1="ent0004" data-entity-2="ent0005" id="lnk11" data-source-line="32" data-link-type="association"><path d="M629.28,182.241 C629.28,201.901 629.28,223.821 629.28,241.671" style="stroke:#181818;stroke-width:1;stroke-dasharray:7,7;" fill="none" id="cmin_b-budget" codeLine="32"/></g><!--link score to update--><g class="link" data-entity-1="ent0006" data-entity-2="ent0007" id="lnk12" data-source-line="33" data-link-type="association"><path d="M585.3,463.931 C566.21,482.971 544.14,505.001 526.08,523.031" style="stroke:#181818;stroke-width:1;stroke-dasharray:7,7;" fill="none" id="score-update" codeLine="33"/></g><!--link budget to score--><g class="link" data-entity-1="ent0005" data-entity-2="ent0006" id="lnk13" data-source-line="34" data-link-type="association"><path d="M629.28,315.051 C629.28,333.111 629.28,355.181 629.28,374.261" style="stroke:#181818;stroke-width:1;stroke-dasharray:7,7;" fill="none" id="budget-score" codeLine="34"/></g><?plantuml-src RLF1Rjim3BthAtXiiJXhByEmjG7MjMlJTKsHjCCE1GBPeciXifI9ijEiwR-FSfmu1zyaak-HV2HfeUrIUba25LAvbROla4j3A88E1k77-3hvVfSyVlkTd7o6XnY9mUlisSxMzEiEJeUVmBeWWtOsIIMXWbhZYhu2lc9M1PaQ_CWGMJg51Z9dS-TBQJC4JH49cP6wHFLisKV1Isq3SJ5kPGU7VY1dQbH2y9y8ndDfZ5l1sLa76utWJG2CuGiqJWO5NSQEs8c-baQyjt1SKX-KpTeuomGbIgeybcW3eFVEG-egg_O4j_COqSTno-YSVPextoU6tBloa7HFb761yxIFA7fW12VnwIWSXMCOdJVMdULgEfrCE-kECgtK2uO-oWl8jTK1uSza2ZzB-Th-zr3AdCS-9CNqvx1odW9m2-oAmcvk5XlskXezJ58E6lnT7E_PggMIePVkPl7XbEdU2bQ8Fx21oL4nQD1RpGWpNeFnlyKxiudTj8V3LdWH1zZzsccmOPjIjAgoOIk6s3RM1RGQiQ7n2C6hXZpZ45p9zJquqa7NcAHLI6ffDHMntQWwWMIck9aIk51Er2m_BBrp-P2npLJYTlE-i2oXG22-6iWAHsYXqmAuPESL4_WrKp5rX7StrbmIA4rB8zTq0EJhqW6KmuCBYddMJMdRGubKCpGi8vz1FBvOqSNJvVNLOpFzwUJf_d8s56XL9C7_?></g></svg>