<svg xmlns="http://www.w3.org/2000/svg" xmlns:xlink="http://www.w3.org/1999/xlink" version="1.1" data-diagram-type="SEQUENCE" style="width:999px;height:749px;background:#FFFFFF;" width="999px" height="749px" viewBox="0 0 999 749" zoomAndPan="magnify" preserveAspectRatio="none" contentStyleType="text/css"><?plantuml 1.2026.8beta1?><defs/><g font-family="sans-serif" lengthAdjust="spacing"><g class="title" data-source-line="2"><text x="357.737" y="27.995" fill="#000" font-size="14" textLength="282.01" font-weight="700">FIG-CL-TAV-06 Diagnostic sequence</text><text x="164.666" y="44.292" fill="#000" font-size="14" textLength="668.151" font-weight="700">SysML 1.6 notation-based views; executable/metamodel conformance is not claimed</text><text x="191.614" y="60.589" fill="#000" font-size="14" textLength="614.257" font-weight="700">failure, overlapping observation, preparatory action, later distinguishing test</text></g><g><title>Operator</title><rect x="40.833" y="156.188" width="8" height="506.125" fill="#000" fill-opacity="0"/><line x1="44.333" y1="156.188" x2="44.333" y2="662.313" style="stroke:#181818;stroke-width:0.5;stroke-dasharray:5,5;"/></g><g><title>Msess</title><rect x="369.203" y="156.188" width="8" height="506.125" fill="#000" fill-opacity="0"/><line x1="372.703" y1="156.188" x2="372.703" y2="662.313" style="stroke:#181818;stroke-width:0.5;stroke-dasharray:5,5;"/></g><g><title>Mprot</title><rect x="794.245" y="156.188" width="8" height="506.125" fill="#000" fill-opacity="0"/><line x1="797.745" y1="156.188" x2="797.745" y2="662.313" style="stroke:#181818;stroke-width:0.5;stroke-dasharray:5,5;"/></g><g><title>Analysis . Diagnosis</title><rect x="908.309" y="156.188" width="8" height="506.125" fill="#000" fill-opacity="0"/><line x1="911.809" y1="156.188" x2="911.809" y2="662.313" style="stroke:#181818;stroke-width:0.5;stroke-dasharray:5,5;"/></g><text x="10" y="152.886" fill="#000" font-size="14" textLength="62.665">Operator</text><ellipse cx="44.333" cy="88.391" rx="8" ry="8" fill="#E2E2F0" style="stroke:#181818;stroke-width:0.5;"/><path d="M44.333,96.391 L44.333,123.391 M31.333,104.391 L57.333,104.391 M44.333,123.391 L31.333,138.391 M44.333,123.391 L57.333,138.391" style="stroke:#181818;stroke-width:0.5;" fill="none"/><rect x="344.416" y="124.891" width="56.574" height="30.297" fill="#E2E2F0" style="stroke:#181818;stroke-width:0.5;" rx="2.5" ry="2.5"/><text x="351.416" y="144.886" fill="#000" font-size="14" textLength="42.574">Msess</text><rect x="770.357" y="124.891" width="54.776" height="30.297" fill="#E2E2F0" style="stroke:#181818;stroke-width:0.5;" rx="2.5" ry="2.5"/><text x="777.357" y="144.886" fill="#000" font-size="14" textLength="40.776">Mprot</text><rect x="835.133" y="124.891" width="153.351" height="30.297" fill="#E2E2F0" style="stroke:#181818;stroke-width:0.5;" rx="2.5" ry="2.5"/><text x="842.133" y="144.886" fill="#000" font-size="14" textLength="139.351">Analysis / Diagnosis</text><text x="10" y="675.308" fill="#000" font-size="14" textLength="62.665">Operator</text><ellipse cx="44.333" cy="687.109" rx="8" ry="8" fill="#E2E2F0" style="stroke:#181818;stroke-width:0.5;"/><path d="M44.333,695.109 L44.333,722.109 M31.333,703.109 L57.333,703.109 M44.333,722.109 L31.333,737.109 M44.333,722.109 L57.333,737.109" style="stroke:#181818;stroke-width:0.5;" fill="none"/><rect x="344.416" y="662.313" width="56.574" height="30.297" fill="#E2E2F0" style="stroke:#181818;stroke-width:0.5;" rx="2.5" ry="2.5"/><text x="351.416" y="682.308" fill="#000" font-size="14" textLength="42.574">Msess</text><rect x="770.357" y="662.313" width="54.776" height="30.297" fill="#E2E2F0" style="stroke:#181818;stroke-width:0.5;" rx="2.5" ry="2.5"/><text x="777.357" y="682.308" fill="#000" font-size="14" textLength="40.776">Mprot</text><rect x="835.133" y="662.313" width="153.351" height="30.297" fill="#E2E2F0" style="stroke:#181818;stroke-width:0.5;" rx="2.5" ry="2.5"/><text x="842.133" y="682.308" fill="#000" font-size="14" textLength="139.351">Analysis / Diagnosis</text><polygon points="360.703,181.32,370.703,185.32,360.703,189.32,364.703,185.32" fill="#181818" style="stroke:#181818;stroke-width:1;stroke-linejoin:miter;stroke-miterlimit:10;"/><line x1="44.333" y1="185.32" x2="366.703" y2="185.32" style="stroke:#181818;stroke-width:1;"/><text x="51.333" y="180.254" fill="#000" font-size="13" textLength="304.37">start session, H0 = {h_normal} union H_single</text><line x1="372.703" y1="214.453" x2="414.703" y2="214.453" style="stroke:#181818;stroke-width:1;"/><line x1="414.703" y1="214.453" x2="414.703" y2="227.453" style="stroke:#181818;stroke-width:1;"/><line x1="373.703" y1="227.453" x2="414.703" y2="227.453" style="stroke:#181818;stroke-width:1;"/><polygon points="383.703,223.453,373.703,227.453,383.703,231.453,379.703,227.453" fill="#181818" style="stroke:#181818;stroke-width:1;stroke-linejoin:miter;stroke-miterlimit:10;"/><text x="379.703" y="209.387" fill="#000" font-size="13" textLength="411.042">overlapping {a,b}/{a,c} stays strictly-reducing even if s(t)=|H|</text><path d="M377.703,240.453 L377.703,280.453 L607.703,280.453 L607.703,250.453 L597.703,240.453 L377.703,240.453" style="stroke:#181818;stroke-width:0.5;" fill="#FEFFDD"/><path d="M597.703,240.453 L597.703,250.453 L607.703,250.453 L597.703,240.453" style="stroke:#181818;stroke-width:0.5;" fill="#FEFFDD"/><text x="383.703" y="257.52" fill="#000" font-size="13" textLength="209.746">Worst-case non-shrinkage is not</text><text x="383.703" y="272.653" fill="#000" font-size="13" textLength="142.962">"no diagnostic value".</text><line x1="372.703" y1="306.852" x2="414.703" y2="306.852" style="stroke:#181818;stroke-width:1;"/><line x1="414.703" y1="306.852" x2="414.703" y2="319.852" style="stroke:#181818;stroke-width:1;"/><line x1="373.703" y1="319.852" x2="414.703" y2="319.852" style="stroke:#181818;stroke-width:1;"/><polygon points="383.703,315.852,373.703,319.852,383.703,323.852,379.703,319.852" fill="#181818" style="stroke:#181818;stroke-width:1;stroke-linejoin:miter;stroke-miterlimit:10;"/><text x="379.703" y="301.786" fill="#000" font-size="13" textLength="393.65">Admit; uninformative TEST has no strictly-reducing outcome</text><line x1="372.703" y1="348.984" x2="414.703" y2="348.984" style="stroke:#181818;stroke-width:1;"/><line x1="414.703" y1="348.984" x2="414.703" y2="361.984" style="stroke:#181818;stroke-width:1;"/><line x1="373.703" y1="361.984" x2="414.703" y2="361.984" style="stroke:#181818;stroke-width:1;"/><polygon points="383.703,357.984,373.703,361.984,383.703,365.984,379.703,361.984" fill="#181818" style="stroke:#181818;stroke-width:1;stroke-linejoin:miter;stroke-miterlimit:10;"/><text x="379.703" y="343.918" fill="#000" font-size="13" textLength="300.854">Select Prep from A, not the uninformative test</text><polygon points="785.745,387.117,795.745,391.117,785.745,395.117,789.745,391.117" fill="#181818" style="stroke:#181818;stroke-width:1;stroke-linejoin:miter;stroke-miterlimit:10;"/><line x1="372.703" y1="391.117" x2="791.745" y2="391.117" style="stroke:#181818;stroke-width:1;"/><text x="379.703" y="386.051" fill="#000" font-size="13" textLength="264.812">Prep action through FIG-CL-TAV-04 ports</text><polygon points="383.703,416.25,373.703,420.25,383.703,424.25,379.703,420.25" fill="#181818" style="stroke:#181818;stroke-width:1;stroke-linejoin:miter;stroke-miterlimit:10;"/><line x1="377.703" y1="420.25" x2="796.745" y2="420.25" style="stroke:#181818;stroke-width:1;stroke-dasharray:2,2;"/><text x="389.703" y="415.184" fill="#000" font-size="13" textLength="34.944">qk+1</text><line x1="372.703" y1="449.383" x2="414.703" y2="449.383" style="stroke:#181818;stroke-width:1;"/><line x1="414.703" y1="449.383" x2="414.703" y2="462.383" style="stroke:#181818;stroke-width:1;"/><line x1="373.703" y1="462.383" x2="414.703" y2="462.383" style="stroke:#181818;stroke-width:1;"/><polygon points="383.703,458.383,373.703,462.383,383.703,466.383,379.703,462.383" fill="#181818" style="stroke:#181818;stroke-width:1;stroke-linejoin:miter;stroke-miterlimit:10;"/><text x="379.703" y="444.317" fill="#000" font-size="13" textLength="263.466">Select later distinguishing test tb from A</text><polygon points="785.745,487.516,795.745,491.516,785.745,495.516,789.745,491.516" fill="#181818" style="stroke:#181818;stroke-width:1;stroke-linejoin:miter;stroke-miterlimit:10;"/><line x1="372.703" y1="491.516" x2="791.745" y2="491.516" style="stroke:#181818;stroke-width:1;"/><text x="379.703" y="486.45" fill="#000" font-size="13" textLength="69.869">Execute tb</text><polygon points="383.703,516.648,373.703,520.648,383.703,524.648,379.703,520.648" fill="#181818" style="stroke:#181818;stroke-width:1;stroke-linejoin:miter;stroke-miterlimit:10;"/><line x1="377.703" y1="520.648" x2="796.745" y2="520.648" style="stroke:#181818;stroke-width:1;stroke-dasharray:2,2;"/><text x="389.703" y="515.583" fill="#000" font-size="13" textLength="195.463">observation that splits h1 / h2</text><polygon points="899.809,545.781,909.809,549.781,899.809,553.781,903.809,549.781" fill="#181818" style="stroke:#181818;stroke-width:1;stroke-linejoin:miter;stroke-miterlimit:10;"/><line x1="372.703" y1="549.781" x2="905.809" y2="549.781" style="stroke:#181818;stroke-width:1;"/><text x="379.703" y="544.715" fill="#000" font-size="13" textLength="52.33">Izk of tb</text><polygon points="383.703,574.914,373.703,578.914,383.703,582.914,379.703,578.914" fill="#181818" style="stroke:#181818;stroke-width:1;stroke-linejoin:miter;stroke-miterlimit:10;"/><line x1="377.703" y1="578.914" x2="910.809" y2="578.914" style="stroke:#181818;stroke-width:1;stroke-dasharray:2,2;"/><text x="389.703" y="573.848" fill="#000" font-size="13" textLength="239.992">Hk singleton or still indistinguishable</text><path d="M325.221,591.914 L325.221,646.914 L959.221,646.914 L959.221,601.914 L949.221,591.914 L325.221,591.914" style="stroke:#181818;stroke-width:0.5;" fill="#FEFFDD"/><path d="M949.221,591.914 L949.221,601.914 L959.221,601.914 L949.221,591.914" style="stroke:#181818;stroke-width:0.5;" fill="#FEFFDD"/><text x="446.24" y="608.981" fill="#000" font-size="13" textLength="335.213">Prep is a session action in the same admissible set.</text><text x="446.24" y="624.114" fill="#000" font-size="13" textLength="350.048">It spends the same selected-mode resource as a test.</text><text x="446.24" y="639.247" fill="#000" font-size="13" textLength="383.03">ERROR with unknown-effect does not keep q; recover first.</text><?plantuml-src TLDTJzj047pthrZbgLLZFggAXo8gMIrja4141BKlI6XZh-EJptVcTfqq1Vvxz-mQ0crV_E3RcPkTcUFQk1O3Di0L5dvZt0fAj4o96B44Ny--fP_Fq-liUtfm15yChfndCJamtNNaShfnYorVdCFXtX4uBoZ6ktI9J0Mi3Mtu6EWdvPtWqj9-GuADByX2xbtfGuFA08OZ4dABfg7YnfLeR1Te2dvDmMBRHb5-oHJMFVqKsa1HjFYm1So7VnQ50XH6rRbLPxYAA26M9D4H7-2ofHwIA5GtC2qwWSa54_C4a67nwg0DNlg3-Sk3pA7TiehU7_qm0q6M9ECTa7w21Nm45aL2lABNE3k04xYlRbrStJv2v_Gtp6vPjLfA5YDiT_5xd2uVz_MRFqQwBUitc5piDWrKT7cSeJKvC2Nm6tbxyZ1xIDHFWc1MbO0lTJE07pwmfBa6esQxbAjWN8shqNsTc3YlzZq5l4RRqMGl8LV4WHrrMT4OEOxYXmp5h0ckJnVNK64a-uT0tqdkcnsE1LdA1UOQ99J1Dv1D-n98HQ-8-mXxt5nnFM28N6U3xrRLYuv-WDO7uMGEwP-RxkftXt_T-z-oW2p_w7c-yxGli2fPxj3kz565e8RSMYCCrQ7sede_e3CTFFjLnmmKd3s1PpKCaOkYjIqgmremRaTGV2z3ZB4Ci9Yg8XZMryHmxDJeXN6zTOmD0Me-UgW4EYLx2ZkByZH8VXxYtWWgqlWU8H3xBkXRnCWTZOYmqwkhoolO6AaqazhvZKkfBAD_XQVXqTQaWkwEbI3lTPOcHEnOcjy0?></g></svg>