<svg xmlns="http://www.w3.org/2000/svg" xmlns:xlink="http://www.w3.org/1999/xlink" version="1.1" data-diagram-type="CLASS" style="width:1013px;height:835px;background:#FFFFFF;" width="1013px" height="835px" viewBox="0 0 1013 835" zoomAndPan="magnify" preserveAspectRatio="none" contentStyleType="text/css"><?plantuml 1.2026.8beta1?><defs/><g font-family="sans-serif" lengthAdjust="spacing"><g class="title" data-source-line="2"><text x="426.819" y="22.995" fill="#000" font-size="14" textLength="152.38" font-weight="700">FIG-CL-TAV-03 BDD</text><text x="168.934" y="39.292" fill="#000" font-size="14" textLength="668.151" font-weight="700">SysML 1.6 notation-based views; executable/metamodel conformance is not claimed</text><text x="192.736" y="55.589" fill="#000" font-size="14" textLength="620.546" font-weight="700">Test, Observation, Analysis, Diagnosis, Selection, Evidence as separate blocks</text></g><!--class Test--><g class="entity" data-qualified-name="Test" id="ent0001" data-source-line="4"><rect x="7" y="85.041" width="123.918" height="80.594" fill="#F1F1F1" style="stroke:#181818;stroke-width:0.5;" rx="2.5" ry="2.5"/><ellipse cx="49.886" cy="101.041" rx="11" ry="11" fill="#ADD1B2" style="stroke:#181818;stroke-width:1;"/><path d="M52.855,106.681 Q52.277,106.978 51.636,107.119 Q50.996,107.275 50.293,107.275 Q47.793,107.275 46.465,105.634 Q45.152,103.978 45.152,100.853 Q45.152,97.728 46.465,96.072 Q47.793,94.416 50.293,94.416 Q50.996,94.416 51.636,94.572 Q52.293,94.728 52.855,95.025 L52.855,97.744 Q52.23,97.166 51.636,96.9 Q51.043,96.619 50.418,96.619 Q49.074,96.619 48.386,97.697 Q47.699,98.759 47.699,100.853 Q47.699,102.947 48.386,104.025 Q49.074,105.087 50.418,105.087 Q51.043,105.087 51.636,104.822 Q52.23,104.541 52.855,103.962 L52.855,106.681 Z " fill="#000"/><text x="70.083" y="105.887" fill="#000" font-size="14" textLength="29.948">Test</text><line x1="8" y1="117.041" x2="129.918" y2="117.041" style="stroke:#181818;stroke-width:0.5;"/><line x1="8" y1="125.041" x2="129.918" y2="125.041" style="stroke:#181818;stroke-width:0.5;"/><text x="13" y="142.036" fill="#000" font-size="14" textLength="63.622">t in T(qk)</text><text x="13" y="158.333" fill="#000" font-size="14" textLength="111.918">cost(t) >= cmin</text></g><!--class Observation--><g class="entity" data-qualified-name="Observation" id="ent0002" data-source-line="8"><rect x="253.81" y="250.781" width="206.298" height="96.891" fill="#F1F1F1" style="stroke:#181818;stroke-width:0.5;" rx="2.5" ry="2.5"/><ellipse cx="310.083" cy="266.781" rx="11" ry="11" fill="#ADD1B2" style="stroke:#181818;stroke-width:1;"/><path d="M313.052,272.421 Q312.474,272.718 311.833,272.859 Q311.193,273.015 310.49,273.015 Q307.99,273.015 306.662,271.374 Q305.349,269.718 305.349,266.593 Q305.349,263.468 306.662,261.812 Q307.99,260.156 310.49,260.156 Q311.193,260.156 311.833,260.312 Q312.49,260.468 313.052,260.765 L313.052,263.484 Q312.427,262.906 311.833,262.64 Q311.24,262.359 310.615,262.359 Q309.271,262.359 308.583,263.437 Q307.896,264.499 307.896,266.593 Q307.896,268.687 308.583,269.765 Q309.271,270.828 310.615,270.828 Q311.24,270.828 311.833,270.562 Q312.427,270.281 313.052,269.703 L313.052,272.421 Z " fill="#000"/><text x="330.583" y="271.627" fill="#000" font-size="14" textLength="85.251">Observation</text><line x1="254.81" y1="282.781" x2="459.108" y2="282.781" style="stroke:#181818;stroke-width:0.5;"/><text x="259.81" y="299.776" fill="#000" font-size="14" textLength="19.585">Izk</text><text x="259.81" y="316.073" fill="#000" font-size="14" textLength="169.326">qk observable summary</text><text x="259.81" y="332.369" fill="#000" font-size="14" textLength="194.298">ERROR if instrument invalid</text><line x1="254.81" y1="339.671" x2="459.108" y2="339.671" style="stroke:#181818;stroke-width:0.5;"/></g><!--class Analysis--><g class="entity" data-qualified-name="Analysis" id="ent0003" data-source-line="13"><rect x="256.45" y="424.671" width="197.021" height="80.594" fill="#F1F1F1" style="stroke:#181818;stroke-width:0.5;" rx="2.5" ry="2.5"/><ellipse cx="321.87" cy="440.671" rx="11" ry="11" fill="#ADD1B2" style="stroke:#181818;stroke-width:1;"/><path d="M324.839,446.311 Q324.261,446.608 323.62,446.749 Q322.979,446.905 322.276,446.905 Q319.776,446.905 318.448,445.264 Q317.136,443.608 317.136,440.483 Q317.136,437.358 318.448,435.702 Q319.776,434.046 322.276,434.046 Q322.979,434.046 323.62,434.202 Q324.276,434.358 324.839,434.655 L324.839,437.374 Q324.214,436.796 323.62,436.53 Q323.026,436.249 322.401,436.249 Q321.057,436.249 320.37,437.327 Q319.682,438.389 319.682,440.483 Q319.682,442.577 320.37,443.655 Q321.057,444.718 322.401,444.718 Q323.026,444.718 323.62,444.452 Q324.214,444.171 324.839,443.593 L324.839,446.311 Z " fill="#000"/><text x="342.37" y="445.517" fill="#000" font-size="14" textLength="57.682">Analysis</text><line x1="257.45" y1="456.671" x2="452.471" y2="456.671" style="stroke:#181818;stroke-width:0.5;"/><text x="262.45" y="473.666" fill="#000" font-size="14" textLength="123.573">constraint verdict</text><text x="262.45" y="489.963" fill="#000" font-size="14" textLength="185.021">same partitions as scoring</text><line x1="257.45" y1="497.264" x2="452.471" y2="497.264" style="stroke:#181818;stroke-width:0.5;"/></g><!--class Diagnosis--><g class="entity" data-qualified-name="Diagnosis" id="ent0004" data-source-line="17"><rect x="167.53" y="582.261" width="156.854" height="80.594" fill="#F1F1F1" style="stroke:#181818;stroke-width:0.5;" rx="2.5" ry="2.5"/><ellipse cx="208.091" cy="598.261" rx="11" ry="11" fill="#ADD1B2" style="stroke:#181818;stroke-width:1;"/><path d="M211.06,603.901 Q210.481,604.198 209.841,604.339 Q209.2,604.495 208.497,604.495 Q205.997,604.495 204.669,602.854 Q203.356,601.198 203.356,598.073 Q203.356,594.948 204.669,593.292 Q205.997,591.636 208.497,591.636 Q209.2,591.636 209.841,591.792 Q210.497,591.948 211.06,592.245 L211.06,594.964 Q210.435,594.386 209.841,594.12 Q209.247,593.839 208.622,593.839 Q207.278,593.839 206.591,594.917 Q205.903,595.979 205.903,598.073 Q205.903,600.167 206.591,601.245 Q207.278,602.307 208.622,602.307 Q209.247,602.307 209.841,602.042 Q210.435,601.761 211.06,601.182 L211.06,603.901 Z " fill="#000"/><text x="227.771" y="603.107" fill="#000" font-size="14" textLength="68.052">Diagnosis</text><line x1="168.53" y1="614.261" x2="323.384" y2="614.261" style="stroke:#181818;stroke-width:0.5;"/><text x="173.53" y="631.256" fill="#000" font-size="14" textLength="118.426">Hk candidate set</text><text x="173.53" y="647.553" fill="#000" font-size="14" textLength="144.854">compatibility update</text><line x1="168.53" y1="654.854" x2="323.384" y2="654.854" style="stroke:#181818;stroke-width:0.5;"/></g><!--class Selection--><g class="entity" data-qualified-name="Selection" id="ent0005" data-source-line="21"><rect x="162.57" y="739.861" width="166.786" height="80.594" fill="#F1F1F1" style="stroke:#181818;stroke-width:0.5;" rx="2.5" ry="2.5"/><ellipse cx="209.454" cy="755.861" rx="11" ry="11" fill="#ADD1B2" style="stroke:#181818;stroke-width:1;"/><path d="M212.423,761.501 Q211.845,761.798 211.204,761.939 Q210.564,762.095 209.861,762.095 Q207.361,762.095 206.032,760.454 Q204.72,758.798 204.72,755.673 Q204.72,752.548 206.032,750.892 Q207.361,749.236 209.861,749.236 Q210.564,749.236 211.204,749.392 Q211.861,749.548 212.423,749.845 L212.423,752.564 Q211.798,751.986 211.204,751.72 Q210.611,751.439 209.986,751.439 Q208.642,751.439 207.954,752.517 Q207.267,753.579 207.267,755.673 Q207.267,757.767 207.954,758.845 Q208.642,759.907 209.986,759.907 Q210.611,759.907 211.204,759.642 Q211.798,759.361 212.423,758.782 L212.423,761.501 Z " fill="#000"/><text x="229.954" y="760.707" fill="#000" font-size="14" textLength="64.518">Selection</text><line x1="163.57" y1="771.861" x2="328.356" y2="771.861" style="stroke:#181818;stroke-width:0.5;"/><text x="168.57" y="788.856" fill="#000" font-size="14" textLength="79.242">Prep action</text><line x1="163.57" y1="796.157" x2="328.356" y2="796.157" style="stroke:#181818;stroke-width:0.5;"/><text x="168.57" y="813.153" fill="#000" font-size="14" textLength="154.786">one-step minimax s(t)</text></g><!--class Evidence--><g class="entity" data-qualified-name="Evidence" id="ent0006" data-source-line="25"><rect x="404.61" y="76.891" width="138.69" height="96.891" fill="#F1F1F1" style="stroke:#181818;stroke-width:0.5;" rx="2.5" ry="2.5"/><ellipse cx="438.954" cy="92.891" rx="11" ry="11" fill="#ADD1B2" style="stroke:#181818;stroke-width:1;"/><path d="M441.923,98.531 Q441.344,98.828 440.704,98.969 Q440.063,99.125 439.36,99.125 Q436.86,99.125 435.532,97.484 Q434.219,95.828 434.219,92.703 Q434.219,89.578 435.532,87.922 Q436.86,86.266 439.36,86.266 Q440.063,86.266 440.704,86.422 Q441.36,86.578 441.923,86.875 L441.923,89.594 Q441.298,89.016 440.704,88.75 Q440.11,88.469 439.485,88.469 Q438.141,88.469 437.454,89.547 Q436.766,90.609 436.766,92.703 Q436.766,94.797 437.454,95.875 Q438.141,96.938 439.485,96.938 Q440.11,96.938 440.704,96.672 Q441.298,96.391 441.923,95.813 L441.923,98.531 Z " fill="#000"/><text x="457.252" y="97.737" fill="#000" font-size="14" textLength="63.704">Evidence</text><line x1="405.61" y1="108.891" x2="542.3" y2="108.891" style="stroke:#181818;stroke-width:0.5;"/><text x="410.61" y="125.886" fill="#000" font-size="14" textLength="43.429">traces</text><text x="410.61" y="142.183" fill="#000" font-size="14" textLength="69.439">stop class</text><text x="410.61" y="158.479" fill="#000" font-size="14" textLength="126.69">budget remainder</text><line x1="405.61" y1="165.781" x2="542.3" y2="165.781" style="stroke:#181818;stroke-width:0.5;"/></g><g class="entity" data-qualified-name="GMN15" id="ent0016" data-source-line="40"><path d="M565.9,286.661 L565.9,311.793 A0,0 0 0 0 565.9,311.793 L998.019,311.793 A0,0 0 0 0 998.019,311.793 L998.019,296.661 L988.019,286.661 L764.6,286.661 L543.46,165.121 L756.6,286.661 L565.9,286.661 A0,0 0 0 0 565.9,286.661" style="stroke:#181818;stroke-width:0.5;" fill="#FEFFDD"/><path d="M988.019,286.661 L988.019,296.661 L998.019,296.661 L988.019,286.661" style="stroke:#181818;stroke-width:0.5;" fill="#FEFFDD"/><text x="571.9" y="303.728" fill="#000" font-size="13" textLength="411.119">Blocks are logical SysML classifiers, not implemented modules.</text></g><!--link Test to Observation--><g class="link" data-entity-1="ent0001" data-entity-2="ent0002" id="lnk7" data-source-line="31" data-link-type="dependency"><path d="M131.1,163.421 C173.76,188.881 226.487,220.348 272.557,247.848" style="stroke:#181818;stroke-width:1;" fill="none" id="Test-to-Observation" codeLine="31"/><polygon points="276.85,250.411,271.172,242.363,272.557,247.848,267.072,249.232,276.85,250.411" fill="#181818" style="stroke:#181818;stroke-width:1;stroke-linejoin:miter;stroke-miterlimit:10;"/><text x="222.96" y="216.848" fill="#000" font-size="13" textLength="52.171">execute</text></g><!--link Observation to Analysis--><g class="link" data-entity-1="ent0002" data-entity-2="ent0003" id="lnk8" data-source-line="32" data-link-type="dependency"><path d="M356.38,348.021 C356.08,372.281 355.781,396.401 355.501,419.391" style="stroke:#181818;stroke-width:1;" fill="none" id="Observation-to-Analysis" codeLine="32"/><polygon points="355.44,424.391,359.549,415.44,355.501,419.391,351.55,415.343,355.44,424.391" fill="#181818" style="stroke:#181818;stroke-width:1;stroke-linejoin:miter;stroke-miterlimit:10;"/><text x="356.96" y="390.738" fill="#000" font-size="13" textLength="18.186">Izk</text></g><!--link Analysis to Diagnosis--><g class="link" data-entity-1="ent0003" data-entity-2="ent0004" id="lnk9" data-source-line="33" data-link-type="dependency"><path d="M327.17,505.631 C310.77,529.041 292.958,554.475 276.568,577.875" style="stroke:#181818;stroke-width:1;" fill="none" id="Analysis-to-Diagnosis" codeLine="33"/><polygon points="273.7,581.971,282.14,576.894,276.568,577.875,275.587,572.304,273.7,581.971" fill="#181818" style="stroke:#181818;stroke-width:1;stroke-linejoin:miter;stroke-miterlimit:10;"/><text x="304.96" y="548.328" fill="#000" font-size="13" textLength="163.979">compatible / inconsistent</text></g><!--link Diagnosis to Selection--><g class="link" data-entity-1="ent0004" data-entity-2="ent0005" id="lnk10" data-source-line="34" data-link-type="dependency"><path d="M245.96,663.221 C245.96,686.631 245.96,711.161 245.96,734.561" style="stroke:#181818;stroke-width:1;" fill="none" id="Diagnosis-to-Selection" codeLine="34"/><polygon points="245.96,739.561,249.96,730.561,245.96,734.561,241.96,730.561,245.96,739.561" fill="#181818" style="stroke:#181818;stroke-width:1;stroke-linejoin:miter;stroke-miterlimit:10;"/><text x="246.96" y="705.928" fill="#000" font-size="13" textLength="87.363">remaining Hk</text></g><!--link Selection to Test--><g class="link" data-entity-1="ent0005" data-entity-2="ent0001" id="lnk11" data-source-line="35" data-link-type="dependency"><path d="M162.36,753.291 C104.91,729.721 38.96,688.521 38.96,623.561 C38.96,298.221 38.96,298.221 38.96,298.221 C38.96,252.331 48.269,205.404 56.839,170.784" style="stroke:#181818;stroke-width:1;" fill="none" id="Selection-to-Test" codeLine="35"/><polygon points="58.04,165.931,51.995,173.706,56.839,170.784,59.76,175.628,58.04,165.931" fill="#181818" style="stroke:#181818;stroke-width:1;stroke-linejoin:miter;stroke-miterlimit:10;"/><text x="39.96" y="469.538" fill="#000" font-size="13" textLength="107.764">next test or stop</text></g><!--link Evidence to Observation--><g class="link" data-entity-1="ent0006" data-entity-2="ent0002" id="lnk12" data-source-line="36" data-link-type="dependency"><path d="M441.37,174.211 C425.21,197.961 408.553,222.417 392.393,246.167" style="stroke:#181818;stroke-width:1;stroke-dasharray:7,7;" fill="none" id="Evidence-to-Observation" codeLine="36"/><polygon points="389.58,250.301,397.95,245.11,392.393,246.167,391.336,240.61,389.58,250.301" fill="#181818" style="stroke:#181818;stroke-width:1;stroke-linejoin:miter;stroke-miterlimit:10;"/></g><!--link Evidence to Diagnosis--><g class="link" data-entity-1="ent0006" data-entity-2="ent0004" id="lnk13" data-source-line="37" data-link-type="dependency"><path d="M404.25,141.821 C347.92,158.401 272.25,190.851 235.96,250.781 C172.41,355.711 207.466,505.025 230.336,577.005" style="stroke:#181818;stroke-width:1;stroke-dasharray:7,7;" fill="none" id="Evidence-to-Diagnosis" codeLine="37"/><polygon points="231.85,581.771,232.937,571.982,230.336,577.005,225.313,574.404,231.85,581.771" fill="#181818" style="stroke:#181818;stroke-width:1;stroke-linejoin:miter;stroke-miterlimit:10;"/></g><!--link Evidence to Selection--><g class="link" data-entity-1="ent0006" data-entity-2="ent0005" id="lnk14" data-source-line="38" data-link-type="dependency"><path d="M490.84,174.211 C501.38,208.331 512.96,255.541 512.96,298.221 C512.96,298.221 512.96,298.221 512.96,623.561 C512.96,709.671 412.892,747.88 334.592,765.22" style="stroke:#181818;stroke-width:1;stroke-dasharray:7,7;" fill="none" id="Evidence-to-Selection" codeLine="38"/><polygon points="329.71,766.301,339.362,768.26,334.592,765.22,337.632,760.449,329.71,766.301" fill="#181818" style="stroke:#181818;stroke-width:1;stroke-linejoin:miter;stroke-miterlimit:10;"/></g><?plantuml-src LLFBRXin3BphAtXC0A_Jea0FBXeWgTCcG8eKYT5JBbg9TedLOoFAZjsY_rvATkNuif38uP0pI_50OTH9U-1VsiPN2YjOQiUeCcM7yFNkM_VblbjS_UpUVO3h-VmvFEtu-psydtw44BFE54FNQqOB6y9N_WIuHRFEkdTuuJ5h7oqwC34iO_8w60JYKWd6QV9edyC2EK_WeMTCcyetWQkWtOw99p0dlGgn7f_GeTddRpPaiN1f1iOY82FqBfg1bH9YPYYiy4S1PA00YxENuLmk9d8-o-Tm-HcCfw3-7j1lkjUYkz-3V5y6YFk4g05UUw_JJk8tZuyFZq1BOUQSrXv3QRBHZcnZ_2-Xqeby0MeIt0QJ9PCboDeZoEpYjBJbgiN49B-WaJJrbULs0AE39LlKCkPAx4UPkYT7UGVhiQHQTJEiLiU07MSSGNIJrrjWCKBYFvB4TCMrokPlDJ1fWrm6pd642f1BlxOhp93GYooBIMfLzRphBa_id1qs0jNRQ44rYsRLxtOjkQFoMHCf_-12V2vcaYW9MHrHfUQeTtQOgwppxQ2EYGAhKyuWu3P3BkUOgZJLL4-d9n9E4wtdQRZrKBBSiemnv-Z5f-kwbQ0JWeihCjh1_WLL8sb9c6ItouCWFpeikoHlILxDsY5F5GPRalWF?></g></svg>