<svg xmlns="http://www.w3.org/2000/svg" xmlns:xlink="http://www.w3.org/1999/xlink" version="1.1" data-diagram-type="DESCRIPTION" style="width:2046px;height:308px;background:#FFFFFF;" width="2046px" height="308px" viewBox="0 0 2046 308" zoomAndPan="magnify" preserveAspectRatio="none" contentStyleType="text/css"><?plantuml 1.2026.8beta1?><defs/><g font-family="sans-serif" lengthAdjust="spacing"><g class="title" data-source-line="2"><text x="946.65" y="22.995" fill="#000" font-size="14" textLength="145.968" font-weight="700">FIG-CL-TAV-04 IBD</text><text x="685.558" y="39.292" fill="#000" font-size="14" textLength="668.151" font-weight="700">SysML 1.6 notation-based views; executable/metamodel conformance is not claimed</text><text x="764.123" y="55.589" fill="#000" font-size="14" textLength="511.021" font-weight="700">trace, constraint, candidate-set, test-selection and budget ports</text></g><!--cluster CTRL--><g class="cluster" data-qualified-name="CTRL" id="ent0001" data-source-line="4"><rect x="505.97" y="176.821" width="405" height="118.15" fill="none" style="stroke:#181818;stroke-width:1;" rx="2.5" ry="2.5"/><rect x="890.97" y="181.821" width="15" height="10" fill="none" style="stroke:#181818;stroke-width:1;"/><rect x="888.97" y="183.821" width="4" height="2" fill="none" style="stroke:#181818;stroke-width:1;"/><rect x="888.97" y="187.821" width="4" height="2" fill="none" style="stroke:#181818;stroke-width:1;"/><text x="639.372" y="202.816" fill="#000" font-size="14" textLength="138.195" font-weight="700">CL-TAV controller</text></g><g class="entity" data-qualified-name="CTRL.PTRACE" id="ent0002" data-source-line="5"><text x="505.903" y="155.519" fill="#000" font-size="14" textLength="36.135">trace</text><rect x="517.97" y="170.821" width="12" height="12" fill="#F1F1F1" style="stroke:#181818;stroke-width:1.5;"/></g><g class="entity" data-qualified-name="CTRL.PCON" id="ent0003" data-source-line="6"><text x="558.717" y="155.519" fill="#000" font-size="14" textLength="70.506">constraint</text><rect x="587.97" y="170.821" width="12" height="12" fill="#F1F1F1" style="stroke:#181818;stroke-width:1.5;"/></g><g class="entity" data-qualified-name="CTRL.PCAND" id="ent0004" data-source-line="7"><text x="646.999" y="155.519" fill="#000" font-size="14" textLength="95.942">candidate-set</text><rect x="688.97" y="170.821" width="12" height="12" fill="#F1F1F1" style="stroke:#181818;stroke-width:1.5;"/></g><g class="entity" data-qualified-name="CTRL.PSEL" id="ent0005" data-source-line="8"><text x="753.539" y="155.519" fill="#000" font-size="14" textLength="94.862">test-selection</text><rect x="794.97" y="170.821" width="12" height="12" fill="#F1F1F1" style="stroke:#181818;stroke-width:1.5;"/></g><g class="entity" data-qualified-name="CTRL.PBUD" id="ent0006" data-source-line="9"><text x="868.152" y="155.519" fill="#000" font-size="14" textLength="49.636">budget</text><rect x="886.97" y="170.821" width="12" height="12" fill="#F1F1F1" style="stroke:#181818;stroke-width:1.5;"/></g><!--entity ADAPT--><g class="entity" data-qualified-name="ADAPT" id="ent0007" data-source-line="12"><rect x="326.86" y="153.671" width="156.211" height="46.297" fill="#F1F1F1" style="stroke:#181818;stroke-width:0.5;" rx="2.5" ry="2.5"/><rect x="463.071" y="158.671" width="15" height="10" fill="#F1F1F1" style="stroke:#181818;stroke-width:0.5;"/><rect x="461.071" y="160.671" width="4" height="2" fill="#F1F1F1" style="stroke:#181818;stroke-width:0.5;"/><rect x="461.071" y="164.671" width="4" height="2" fill="#F1F1F1" style="stroke:#181818;stroke-width:0.5;"/><text x="341.86" y="186.666" fill="#000" font-size="14" textLength="116.211">Protocol adapter</text></g><!--entity CONS--><g class="entity" data-qualified-name="CONS" id="ent0008" data-source-line="13"><rect x="955.14" y="153.671" width="183.664" height="46.297" fill="#F1F1F1" style="stroke:#181818;stroke-width:0.5;" rx="2.5" ry="2.5"/><rect x="1118.804" y="158.671" width="15" height="10" fill="#F1F1F1" style="stroke:#181818;stroke-width:0.5;"/><rect x="1116.804" y="160.671" width="4" height="2" fill="#F1F1F1" style="stroke:#181818;stroke-width:0.5;"/><rect x="1116.804" y="164.671" width="4" height="2" fill="#F1F1F1" style="stroke:#181818;stroke-width:0.5;"/><text x="970.14" y="186.666" fill="#000" font-size="14" textLength="143.664">Constraint evaluator</text></g><!--entity CAND--><g class="entity" data-qualified-name="CAND" id="ent0009" data-source-line="14"><rect x="1174.1" y="153.671" width="151.74" height="46.297" fill="#F1F1F1" style="stroke:#181818;stroke-width:0.5;" rx="2.5" ry="2.5"/><rect x="1305.84" y="158.671" width="15" height="10" fill="#F1F1F1" style="stroke:#181818;stroke-width:0.5;"/><rect x="1303.84" y="160.671" width="4" height="2" fill="#F1F1F1" style="stroke:#181818;stroke-width:0.5;"/><rect x="1303.84" y="164.671" width="4" height="2" fill="#F1F1F1" style="stroke:#181818;stroke-width:0.5;"/><text x="1189.1" y="186.666" fill="#000" font-size="14" textLength="111.74">Candidate store</text></g><!--entity TLIB--><g class="entity" data-qualified-name="TLIB" id="ent0010" data-source-line="15"><rect x="1360.79" y="153.671" width="160.36" height="46.297" fill="#F1F1F1" style="stroke:#181818;stroke-width:0.5;" rx="2.5" ry="2.5"/><rect x="1501.15" y="158.671" width="15" height="10" fill="#F1F1F1" style="stroke:#181818;stroke-width:0.5;"/><rect x="1499.15" y="160.671" width="4" height="2" fill="#F1F1F1" style="stroke:#181818;stroke-width:0.5;"/><rect x="1499.15" y="164.671" width="4" height="2" fill="#F1F1F1" style="stroke:#181818;stroke-width:0.5;"/><text x="1375.79" y="186.666" fill="#000" font-size="14" textLength="120.36">Test library T(qk)</text></g><!--entity BUD--><g class="entity" data-qualified-name="BUD" id="ent0011" data-source-line="16"><rect x="1555.94" y="153.671" width="184.061" height="46.297" fill="#F1F1F1" style="stroke:#181818;stroke-width:0.5;" rx="2.5" ry="2.5"/><rect x="1720.001" y="158.671" width="15" height="10" fill="#F1F1F1" style="stroke:#181818;stroke-width:0.5;"/><rect x="1718.001" y="160.671" width="4" height="2" fill="#F1F1F1" style="stroke:#181818;stroke-width:0.5;"/><rect x="1718.001" y="164.671" width="4" height="2" fill="#F1F1F1" style="stroke:#181818;stroke-width:0.5;"/><text x="1570.94" y="186.666" fill="#000" font-size="14" textLength="144.061">Budget / Kmax clock</text></g><g class="entity" data-qualified-name="GMN17" id="ent0018" data-source-line="25"><path d="M1774.68,156.691 L1774.68,196.956 L2031.267,196.956 L2031.267,166.691 L2021.267,156.691 L1774.68,156.691" style="stroke:#181818;stroke-width:0.5;" fill="#FEFFDD"/><path d="M2021.267,156.691 L2021.267,166.691 L2031.267,166.691 L2021.267,156.691" style="stroke:#181818;stroke-width:1;" fill="#FEFFDD"/><text x="1780.68" y="173.758" fill="#000" font-size="13" textLength="235.587">Every test and every ERROR spends</text><text x="1780.68" y="188.89" fill="#000" font-size="13" textLength="217.464">at least cmin or one Kmax round.</text></g><g class="entity" data-qualified-name="GMN20" id="ent0021" data-source-line="29"><path d="M6,156.691 L6,196.956 A0,0 0 0 0 6,196.956 L291.938,196.956 A0,0 0 0 0 291.938,196.956 L291.938,180.821 L326.4,176.821 L291.938,172.821 L291.938,166.691 L281.938,156.691 L6,156.691 A0,0 0 0 0 6,156.691" style="stroke:#181818;stroke-width:0.5;" fill="#FEFFDD"/><path d="M281.938,156.691 L281.938,166.691 L291.938,166.691 L281.938,156.691" style="stroke:#181818;stroke-width:0.5;" fill="#FEFFDD"/><text x="12" y="173.758" fill="#000" font-size="13" textLength="150.224">Adapter talks to Mprot.</text><text x="12" y="188.89" fill="#000" font-size="13" textLength="264.938">Controller is Msess, not a protocol EFSM.</text></g><!--link ADAPT to PTRACE--><g class="link" data-entity-1="ent0007" data-entity-2="ent0002" id="lnk12" data-source-line="18" data-link-type="association"><path d="M483.53,176.821 C494.9,176.821 506.28,176.821 517.65,176.821" style="stroke:#181818;stroke-width:1;" fill="none" id="ADAPT-PTRACE"/></g><!--link CONS to PCON--><g class="link" data-entity-1="ent0008" data-entity-2="ent0003" id="lnk13" data-source-line="19" data-link-type="association"><path d="M1005.01,153.301 C980.59,140.961 948.73,127.131 918.47,120.821 C803.6,96.881 763.72,78.021 654.47,120.821 C628.08,131.161 606.32,159.011 597.82,171.091" style="stroke:#181818;stroke-width:1;" fill="none" id="CONS-PCON"/></g><!--link CAND to PCAND--><g class="link" data-entity-1="ent0009" data-entity-2="ent0004" id="lnk14" data-source-line="20" data-link-type="association"><path d="M1213.96,153.331 C1192.89,141.001 1165.24,127.171 1138.47,120.821 C1056.95,101.501 840.17,92.101 761.47,120.821 C733.4,131.071 708.97,158.961 699.34,171.081" style="stroke:#181818;stroke-width:1;" fill="none" id="CAND-PCAND"/></g><!--link TLIB to PSEL--><g class="link" data-entity-1="ent0010" data-entity-2="ent0005" id="lnk15" data-source-line="21" data-link-type="association"><path d="M1403.55,153.321 C1381.69,140.991 1353.05,127.161 1325.47,120.821 C1226.06,97.991 962.16,85.491 866.47,120.821 C838.68,131.081 814.69,158.971 805.25,171.081" style="stroke:#181818;stroke-width:1;" fill="none" id="TLIB-PSEL"/></g><!--link BUD to PBUD--><g class="link" data-entity-1="ent0011" data-entity-2="ent0006" id="lnk16" data-source-line="22" data-link-type="association"><path d="M1606.71,153.301 C1582.68,140.961 1551.31,127.131 1521.47,120.821 C1398.41,94.801 1072.95,75.891 955.47,120.821 C928.53,131.131 905.87,158.991 896.99,171.091" style="stroke:#181818;stroke-width:1;" fill="none" id="BUD-PBUD"/></g><!--link PBUD to GMN17--><g class="link" data-entity-1="ent0006" data-entity-2="ent0018" id="lnk19" data-source-line="25" data-link-type="association"><path d="M896.99,171.091 C905.87,158.991 928.53,131.131 955.47,120.821 C1036.94,89.661 1654.45,106.411 1740.47,120.821 C1780.94,127.601 1824.81,143.251 1856.76,156.291" style="stroke:#181818;stroke-width:1;stroke-dasharray:7,7;" fill="none" id="PBUD-GMN17"/></g><?plantuml-src LP9BRzim3CVl_XH4JXjGfnimxBAJuxX3CES1nzsf5qPcKY6ov4bCscBOTvyUUTv8yK_nnuVRIpsWnHxSAtRcJUeTR54vobYo8dYQ_SpBEc-Bt_cNRp2RJ5_q-iFDQ_Ww_WxQCB8qEj-WemwEajxS3w1t4WV6ZQB7dXXxqv42OVJMs1wr890kP89GA7lgNZHR5FGG9CwRKhEtKNUoGwRSaNUP77jBaGZbm0TXS-Xsn30OooxBXEa7eqapZ19j-8sjKOhi2D11sJOr_CqW9i0ebeo1LTiKPNK9N25Ij5mkhh5Rg5EuM4oldzvH9i6wgY_nX9pU9y_JxDyTzyeQDi8em0u7Fc4NqsBLtdLtuGCweZeWcrE3oyNwJdY61USbgTT8UwDfFJ0ekR5eFw3zz6V_EShQUZQvbKtIg1_XLu_lVcr6xACkz915GiZFSmmOmGjp2-MY7Sg6JuCJ1k8JWndp_IKGMBbxPJ3Rz0PG7SaJXNd6NLDqgwPPDk06qftp6lJeX5uXUgd1MF2qYT2QW-x6cTU5EwDKGj4sLaWJ1IZIb85HxHsmWVdW5p3saV9oEU5IvuwSUuW7Yp2STrGzhUVN2ly1?></g></svg>